<?xml version="1.0" standalone="no"?>
<!DOCTYPE svg PUBLIC "-//W3C//DTD SVG 1.1//EN" "http://www.w3.org/Graphics/SVG/1.1/DTD/svg11.dtd" >
<svg xmlns="http://www.w3.org/2000/svg">
<metadata>
This is a custom SVG webfont generated by Font Squirrel.
Copyright   : c 2002 Nate Piekos  wwwblambotcom
</metadata>
<defs>
<font id="HolyMackerelOutlineRegular" horiz-adv-x="429" >
<font-face units-per-em="2048" ascent="1638" descent="-410" />
<missing-glyph horiz-adv-x="500" />
<glyph unicode=" " />
<glyph unicode="!" horiz-adv-x="493" d="M8 14l1 337l306 1l-27 -333zM44 487l42 1038l394 2l-166 -1041zM68 76l164 3l18 213l-181 -1zM106 547l157 -1l147 921l-266 -2z" />
<glyph unicode="&#x22;" horiz-adv-x="825" d="M51 1605q98 23 293 71q57 -183 57 -364q0 -111 -20 -252l-306 -56q17 153 17 261q0 170 -41 340zM123 1561q29 -137 29 -298q0 -89 -9 -185l185 34q14 103 14 198q0 158 -38 294q-47 -11 -181 -43zM412 1614l294 70q56 -184 56 -366q0 -110 -20 -249l-306 -57 q17 152 17 261q0 169 -41 341zM484 1570q29 -139 29 -300q0 -89 -9 -184l184 34q14 103 14 197q0 158 -38 295z" />
<glyph unicode="#" horiz-adv-x="1028" d="M-2 1113l158 8l-3 271l291 40l-1 -297l134 7l-3 333l291 40l-2 -359l115 5l60 -329l-176 -10l-1 -51q55 1 149 0v-332q-85 3 -151 2l-2 -308l-271 -35l-3 329q-66 -6 -144 -16l-2 -363l-272 -33l-3 353q-48 -9 -118 -22l-10 341q58 8 125 19l-1 75l-115 -5zM66 1057 l29 -219l123 7l1 -191q-41 -6 -123 -19l6 -217q37 7 120 22l3 -357l152 19l2 361q140 19 264 30l3 -327l151 19l2 316q95 1 151 0v210q-65 1 -149 -2l1 169l164 10l-38 211l-125 -7l2 355l-171 -24l3 -339l-254 -11l1 291l-171 -24l3 -275zM380 675l1 179l259 15v-168 q-114 -9 -260 -26zM440 743q77 8 140 14v48l-139 -7z" />
<glyph unicode="$" horiz-adv-x="814" d="M8 1164q0 202 130 321l-49 168l272 111l49 -182q111 -1 271 -57q-32 -93 -101 -276q-108 70 -176 70q-60 0 -96 -49q-21 -27 -21 -51q0 -32 43 -28q51 4 99 4q326 0 385 -194q11 -36 11 -74q0 -62 -28 -128q-42 -96 -123 -167l60 -216l-253 -100l-58 197q-33 -5 -65 -5 q-139 0 -291 114q47 83 150 243q72 -70 135 -70q20 0 44 5q34 6 80 23q72 26 72 50q0 11 -16 21q-28 17 -77 17q-31 0 -109 -10.5t-117 -10.5q-106 0 -155 62q-66 85 -66 212zM68 1172q0 -24 3 -48q19 -176 160 -176q33 0 109.5 12t114.5 12q65 0 109 -27q47 -30 47 -70 q0 -31 -31 -60q-83 -78 -217 -78q-82 0 -135 38q-26 -47 -79 -138q100 -68 206 -68q49 0 111 13l54 -186l141 56l-56 201q97 79 137 169q24 57 24 106q0 113 -126 173q-63 31 -169 31q-20 0 -56.5 -1.5t-52.5 -1.5q-116 0 -131 64q-3 16 -3 30q0 66 63 113q57 43 125 43 q60 0 134 -41q16 51 51 151q-115 36 -236 32l-44 161l-159 -65l45 -153q-139 -114 -139 -292z" />
<glyph unicode="%" horiz-adv-x="1211" d="M-9 924q0 164 136 288q130 119 289 119q156 0 247 -126l204 431l288 -67l-341 -703q58 18 116 18q129 0 217 -78q94 -84 94 -220q0 -144 -106 -261q-130 -144 -321 -144q-178 0 -262 147l-196 -402l-267 66l306 646q-48 -12 -96 -12q-130 0 -216 78q-92 83 -92 220z M51 924q0 -112 76 -178q69 -61 173 -61q73 0 140 32l76 37l-341 -722l149 -36l237 489q27 -94 39 -119q28 -55 88 -90.5t134 -35.5q155 0 269 126q90 100 90 220q0 113 -76 178q-69 59 -173 59q-88 0 -165 -43l-84 -47l386 794l-168 39l-236 -498q-34 76 -50 99 q-30 45 -84 73q-58 30 -124 30q-134 0 -245 -106t-111 -240zM211 910q-7 77 57 143t142 66q97 0 86 -104q-8 -75 -74 -130q-62 -51 -126 -51q-77 0 -85 76zM271 916q2 -22 18 -22q55 4 97 37q45 37 50 90q3 25 -5.5 33t-35.5 3q-48 -7 -87 -50q-42 -44 -37 -91zM735 466 q-8 77 56.5 143t142.5 66q97 0 86 -104q-8 -75 -74 -130q-62 -51 -126 -51q-77 0 -85 76zM795 472q2 -22 18 -22q55 4 97 37q45 37 50 90q3 25 -5.5 33t-35.5 3q-48 -7 -87 -49q-42 -45 -37 -92z" />
<glyph unicode="&#x26;" horiz-adv-x="1056" d="M31 497q0 76 23 155q42 144 140 227q-94 109 -94 242q0 171 142 290q120 102 313 108q194 6 425 -167l-72 -314q-181 142 -306 146q-178 4 -178 -63q0 -23 27 -52q53 -57 261 -84v40l292 31l-9 -1093l-271 -26l-1 92q-77 -9 -144 -9q-183 0 -299 66q-249 144 -249 411z M91 497q0 -232 219 -358q102 -59 264 -59q84 0 208 17l1 -94l153 14l7 973l-171 -19v-54q-125 15 -190 30q-127 29 -175 82q-44 47 -44 92q0 38 32 69q61 57 208 53q128 -3 267 -101l43 185q-190 137 -356 132q-156 -5 -261 -81q-116 -85 -134 -234q-2 -17 -2 -33 q0 -112 124 -239q-131 -94 -172 -237q-21 -71 -21 -138zM270 499q0 138 152 233q66 42 150 42q85 0 203 -46l5 -433q-138 -33 -225 -33q-116 0 -182 52q-103 79 -103 185zM331 500q0 -78 78 -139q51 -39 147 -39q70 0 163 21l-3 343q-78 28 -141 28q-69 0 -122 -33 q-122 -77 -122 -181z" />
<glyph unicode="'" horiz-adv-x="572" d="M-1 1141q191 271 246 520q154 -42 304 -78q-42 -277 -226 -520l-13 -17zM95 1175l192 -59q155 209 194 421q-96 24 -191 50q-52 -200 -195 -412z" />
<glyph unicode="(" horiz-adv-x="637" d="M-53 784q0 470 433 932l303 -53q-209 -217 -312 -402q-135 -242 -129 -489q9 -424 423 -887q-46 -13 -276 -82q-442 508 -442 981zM8 784q0 -444 401 -913l148 46q-365 425 -375 854q-10 427 380 852l-160 29q-394 -427 -394 -868z" />
<glyph unicode=")" horiz-adv-x="767" d="M36 -141q209 216 311 401q134 242 129 488q-10 424 -421 888q23 6 275 82q869 -1001 20 -1902l-12 -12q-120 23 -302 55zM157 -101l60 -11q42 -8 100 -18q395 424 395 865q0 444 -402 915l-148 -46q752 -881 -5 -1705z" />
<glyph unicode="*" horiz-adv-x="918" d="M5 1226l168 60q-65 47 -147 104q114 103 215 199q48 -37 145 -110l59 159l279 -54l-43 -120l74 26l133 -242l-163 -59q50 -49 113 -117l-213 -186q-67 71 -109 113l-53 -150l-283 69l32 86l-83 -30zM89 1192l70 -144l153 56l-52 -144l165 -39l65 186q83 -79 139 -138 l123 107q-47 50 -139 137l189 67l-75 136l-144 -50l61 172l-161 32l-69 -187q-56 43 -169 128q-60 -58 -123 -115q58 -41 179 -128z" />
<glyph unicode="+" horiz-adv-x="760" d="M7 916q130 27 215 42l-3 333l291 30l-3 -326q119 10 267 6v-330q-143 5 -269 -6l-3 -418l-272 -26l-4 403q-84 -17 -210 -49q-6 141 -9 341zM68 868q2 -137 5 -217q91 22 213 45l4 -409l152 14l3 418l27 3q128 12 242 11v209q-117 2 -267 -13l3 326l-171 -18l3 -329 q-109 -19 -214 -40z" />
<glyph unicode="," horiz-adv-x="558" d="M3 -207q188 271 245 519q102 -27 305 -78q-44 -274 -228 -519l-13 -17zM98 -173l191 -59q154 211 195 420q-46 12 -192 50q-52 -199 -194 -411z" />
<glyph unicode="-" horiz-adv-x="607" d="M26 914q332 94 584 86v-330q-155 7 -282.5 -17.5t-294.5 -82.5q-3 110 -7 344zM87 868l3 -215q257 83 460 79v210q-194 1 -463 -74z" />
<glyph unicode="." horiz-adv-x="388" d="M40 332l314 31l10 -333l-287 -32zM106 278l24 -214l172 20l-6 213z" />
<glyph unicode="/" horiz-adv-x="942" d="M-61 -4l777 1644l288 -67l-799 -1643zM25 36l147 -36l745 1531l-167 39z" />
<glyph unicode="0" horiz-adv-x="1047" d="M-20 719q0 303 157 535q176 261 430 261q202 0 350 -189q159 -203 159 -507t-158 -536q-177 -260 -431 -260q-202 0 -349 189q-158 203 -158 507zM40 719q0 -284 145 -471q129 -165 303 -165q221 0 381 234q147 216 147 502q0 284 -146 470q-130 166 -304 166 q-221 0 -380 -235q-146 -216 -146 -501zM167 737q0 208 154 387q86 98 222 115q120 4 211 -80q86 -79 114 -201q18 -80 18 -154q0 -224 -172 -406q-91 -96 -215 -96q-187 0 -272 180q-60 128 -60 255zM228 722q0 -101 36 -178q84 -177 220 -182q125 -4 225 118 q87 106 110 241q18 103 -10 224q-23 100 -90 165q-74 72 -172 69q-144 -18 -235 -162q-84 -131 -84 -295z" />
<glyph unicode="1" horiz-adv-x="563" d="M-3 1277l258 155l271 37l-8 -1384l-272 -33l-17 1000l-183 -97zM62 1247l31 -200l194 103l18 -1030l153 19l7 1262l-190 -27z" />
<glyph unicode="2" horiz-adv-x="993" d="M-35 1216q380 280 592 264q340 -24 340 -431q0 -93 -19 -196q-44 -226 -165 -419q156 8 312 4v-330q-255 7 -489 -20t-477 -74l-10 341q38 6 116 17q132 37 263 236q116 175 148 331q7 36 7 66q0 87 -67 118q-14 6 -33 6q-114 0 -429 -225zM34 1192l55 -190 q268 187 395 187q32 0 57 -11q102 -47 102 -174q0 -186 -178 -448q-138 -202 -289 -242q-18 -3 -46 -8l-20 -3l7 -217q477 90 848 84v210q-137 2 -371 -14q177 255 225 499q19 99 19 187q0 348 -286 369q-185 13 -518 -229z" />
<glyph unicode="3" horiz-adv-x="904" d="M-22 1352q230 173 424 167q178 -6 299 -97q132 -99 153 -270q2 -20 2 -40q0 -124 -93 -232q162 -139 162 -378q0 -107 -40 -198q-69 -158 -269 -244q-100 -43 -237 -43q-140 0 -350 50l80 311q185 -58 289 -58q83 0 132 32q96 63 96 149q0 106 -130 184q-50 30 -113 30 q-85 0 -237 -72l5 332q112 11 177 23q128 25 171 67q34 32 34 56q0 66 -175 63q-126 -2 -309 -146zM45 1327l42 -184q141 99 271 101q149 2 208 -58q28 -30 28 -64q0 -55 -60 -107q-80 -69 -324 -94l-3 -184q95 38 175 38q81 0 145 -39q159 -95 159 -237q0 -116 -123 -197 q-63 -42 -166 -42q-102 0 -245 42l-50 -191q155 -34 275 -34q127 0 215 38q179 77 239 213q34 80 34 174q0 232 -164 350l-28 20q123 127 123 239q0 16 -2 33q-18 149 -133 233q-105 77 -261 82q-166 5 -355 -132z" />
<glyph unicode="4" horiz-adv-x="869" d="M27 1430l291 28l-6 -659q107 16 221 26l-6 594l292 40l-4 -621h82v-332l-84 3l-2 -432l-271 -35l-4 453q-210 -21 -492 -83q-8 335 -17 1018zM88 1376q3 -297 14 -890q249 53 493 75l4 -451l152 19l2 440h30q20 0 54 -1v210h-82l3 613l-170 -24l6 -596q-173 -16 -343 -42 l6 663z" />
<glyph unicode="5" horiz-adv-x="883" d="M2 79l79 311q182 -57 284 -57q81 0 129 31q90 59 90 136q0 113 -153 198q-64 36 -147 36q-96 0 -257 -57l-14 744q493 92 861 84v-330q-279 8 -571 -39l-1 -105q40 6 78 6q198 0 335 -145q178 -188 178 -403q0 -222 -197 -373q-117 -90 -322 -90q-149 0 -372 53zM74 1371 l12 -611q107 33 196 33q101 0 178 -42q185 -103 185 -253q0 -108 -118 -184q-63 -41 -163 -41t-240 41l-49 -191q168 -37 297 -37q186 0 287 78q174 133 174 326q0 190 -162 361q-117 124 -287 124q-62 0 -143 -15l3 227q319 54 570 50v209q-312 4 -740 -75z" />
<glyph unicode="6" horiz-adv-x="979" d="M-17 719q0 303 156 535q176 261 430 261q184 0 327 -161l15 -17l-160 -262l-56 59q-64 51 -136 51q-97 0 -185 -84q-82 -78 -112 -183q-10 -32 -25 -97q70 102 174 164q108 64 219 64q144 0 254 -108q130 -130 130 -339q0 -159 -71 -284q-167 -294 -454 -294 q-203 0 -349 188q-157 203 -157 507zM43 719q0 -284 145 -471q127 -164 309 -164q245 0 394 264q63 111 63 254q0 171 -98 281q-95 106 -233 106q-134 0 -252 -105q-71 -64 -116 -150q-18 -33 -76 -174q-8 152 -8 169q0 91 33 205q37 127 135 216q104 95 220 95 q94 0 176 -67l6 -5l96 157q-120 125 -268 125q-222 0 -380 -235q-146 -216 -146 -501zM322 491q0 98 61 165q102 114 244 114q38 0 69 -12q127 -50 127 -189q0 -28 -5 -60q-49 -94 -128 -151q-83 -60 -174 -60q-68 0 -132 35q-62 61 -62 158zM382 490q0 -67 38 -109 q46 -23 94 -23q74 0 143 50q64 47 103 121q4 22 4 42q0 96 -90 131q-21 8 -47 8q-115 0 -200 -94q-45 -50 -45 -126z" />
<glyph unicode="7" horiz-adv-x="774" d="M-42 1429q428 94 731 86l140 -196l-442 -1315l-237 54l363 1125q-225 -13 -548 -95q-2 177 -7 341zM19 1381q3 -108 5 -217q296 73 572 83l-369 -1145l121 -28l414 1235l-104 146q-265 6 -639 -74z" />
<glyph unicode="8" horiz-adv-x="994" d="M-22 377q0 179 151 325q-151 100 -151 281q0 215 198 368q187 143 420 143q157 0 271 -74q159 -104 159 -285q0 -179 -152 -325q152 -102 152 -281q0 -178 -154 -327q-194 -187 -465 -187q-154 0 -271 77q-158 104 -158 285zM38 377q0 -148 120 -229q104 -70 257 -70 q42 0 83 6q195 29 331.5 161t136.5 284q0 100 -54 166q-42 51 -141 105q195 166 195 335q0 147 -121 229q-104 70 -257 70q-42 0 -82 -6q-176 -26 -314 -144q-154 -132 -154 -301q0 -100 53 -166q42 -51 141 -104q-194 -167 -194 -336zM166 388q0 81 104 158 q141 105 334 105q120 0 191 -56q40 -33 40 -79q0 -42 -32 -86q-59 -81 -171 -129q-105 -44 -221 -44q-71 0 -131 18q-114 34 -114 113zM167 992q0 82 103 159q141 105 335 105q119 0 190 -57q40 -32 40 -78q0 -42 -32 -86q-59 -82 -171 -129q-104 -43 -220 -43 q-71 0 -132 17q-113 33 -113 112zM225 393q0 -33 61 -56q44 -16 88 -19q16 -1 33 -1q101 0 193 36q103 41 155 113q20 28 20 48q0 19 -18 33q-74 60 -226 39q-192 -26 -294 -162q-12 -16 -12 -31zM225 998q0 -33 61 -56q44 -16 88 -19q16 -1 33 -1q100 0 193 36 q103 41 155 113q20 28 20 48q0 19 -18 34q-74 59 -226 38q-192 -26 -294 -162q-12 -16 -12 -31z" />
<glyph unicode="9" horiz-adv-x="987" d="M-18 936q0 199 119 365q127 175 318 207q27 4 41 4h4q20 2 40 2q203 0 350 -188q159 -203 159 -507t-158 -536q-177 -260 -423 -260q-192 0 -348 177l161 269q87 -116 180 -116q131 0 226 118q83 103 104 242q-71 -101 -174 -161q-108 -64 -218 -64q-143 0 -252 109 q-129 129 -129 339zM42 936q0 -181 98 -287q91 -97 227 -97q119 0 223 75q114 81 175 229l55 129q5 -231 -15 -332l-14 -49q-36 -124 -137 -216q-106 -97 -221 -97q-94 0 -172 68l-8 6l-95 -158q119 -125 266 -125q222 0 382 235q147 216 147 502q0 284 -146 470 q-130 165 -341 163h-6q-107 -1 -210 -85q-88 -71 -147 -177q-61 -110 -61 -254zM171 962q0 32 6 67q107 209 326 208q57 -6 109 -32l4 -5q56 -67 56 -157q0 -94 -61 -162q-99 -110 -245 -110q-84 0 -137 46q-58 51 -58 145zM230 963q0 -133 135 -133q120 0 201 91 q46 51 46 122q0 65 -38 114q-34 16 -75 20q-177 0 -264 -168q-5 -25 -5 -46z" />
<glyph unicode=":" horiz-adv-x="387" d="M35 332l314 31l9 -333l-287 -32zM35 845l314 30l10 -333l-288 -31zM101 278l23 -214l173 20l-6 213zM101 791l23 -214l173 19l-6 213z" />
<glyph unicode=";" horiz-adv-x="503" d="M-33 -207q188 271 246 519q101 -27 304 -78q-44 -274 -228 -519l-13 -17zM63 -173l191 -59q154 211 195 420q-47 12 -192 50q-53 -199 -194 -411zM81 845l314 30l10 -333l-288 -31zM147 791l24 -214l172 19l-6 213z" />
<glyph unicode="&#x3c;" horiz-adv-x="627" d="M-11 794l423 880l240 -86l-376 -793l375 -807l-225 -136zM55 794l397 -856l122 74l-364 783l360 759l-127 46z" />
<glyph unicode="=" horiz-adv-x="868" d="M16 1115l799 48l47 -330l-810 -57zM46 687q465 92 795 84v-330q-207 7 -387.5 -18t-400.5 -78q-5 175 -7 342zM82 1059l24 -219l688 49l-31 210zM107 637q1 -110 4 -216q376 87 670 82v210q-274 2 -674 -76z" />
<glyph unicode="&#x3e;" horiz-adv-x="648" d="M-1 -56l374 793l-373 807l224 136l438 -943l-424 -879zM77 1520l363 -783l-358 -759l125 -46l388 805l-398 857z" />
<glyph unicode="?" horiz-adv-x="989" d="M-16 1303q333 215 537 220q207 5 316 -115q97 -107 97 -286q0 -156 -73 -310q61 2 150 1v-332q-192 7 -357.5 -17t-360.5 -76l-103 345q245 50 354 166q92 98 92 153q0 51 -84 56q-107 6 -423 -157q-48 118 -145 352zM59 1279l100 -245q279 140 396 133q140 -7 140 -102 q0 -93 -108 -207.5t-321 -169.5l68 -228q342 88 617 83v210q-69 0 -192 -5q111 201 114 367q2 173 -88 262.5t-262 85.5q-181 -5 -464 -184zM344 337l314 30l10 -333l-287 -32zM410 283l24 -215l172 20l-6 213z" />
<glyph unicode="@" horiz-adv-x="1903" d="M-18 640q0 396 293 703q286 300 683 349q63 8 126 8q359 0 604 -225q255 -234 255 -599q0 -242 -123 -467q-117 -215 -318 -365q-176 -132 -327 -132q-66 0 -127 26q-142 58 -142 220q0 57 19 127q-20 -2 -39 -2q-130 0 -217 82q-91 85 -91 217q0 162 128 283.5 t290 121.5q26 0 52 -4q-20 21 -77 21q-51 0 -165 -24q-28 81 -82 242q167 48 276 48q188 0 273 -127q71 -109 71 -257q0 -113 -42 -248q-9 -65 -71 -212q-56 -133 -59 -217q-1 -39 25 -39q32 0 153 101q311 259 311 609q0 31 -3 62q-29 176 -126 297l-41 41 q-173 148 -395 148q-78 0 -176 -17q-149 -25 -302 -133t-231 -239q-100 -168 -122 -330q-2 -52 -2 -84q0 -132 79 -280q118 -179 352 -244l-56 -263q-300 75 -475 282q-181 215 -181 520zM42 640q0 -261 150 -458.5t400 -269.5l32 147q-236 74 -334 256l-29 55 q-65 121 -59 271l3 74q24 175 113 329q93 159 234 259q276 194 550 187q244 -6 430 -166l44 -45q110 -135 131 -262l11 -67q8 -51 8 -96q0 -98 -65 -271q-75 -198 -325 -401q-89 -71 -156 -71q-71 0 -68 99q3 94 60 230q63 150 72 212q40 130 40 234q0 148 -68 232 q-74 93 -219 93q-85 0 -197 -30q10 -30 46 -131q77 14 124 14q144 0 155 -119l4 -45q-81 25 -147 25q-142 0 -254 -124q-90 -100 -90 -219q0 -108 74 -175q71 -64 174 -64q37 0 74 9l53 13q-47 -141 -47 -209q0 -120 104 -163q51 -21 106 -21q163 0 350 169q152 136 243 300 q114 206 114 435q0 340 -237 556q-228 208 -562 208q-59 0 -118 -8q-375 -46 -645 -329q-279 -290 -279 -663zM800 569q-8 76 56.5 142.5t141.5 66.5q98 0 87 -104q-9 -76 -74 -131q-61 -50 -125 -50q-78 0 -86 76zM860 575q2 -22 18 -22q56 4 98.5 38t48.5 89q3 24 -6 32.5 t-35 3.5q-48 -7 -88 -49q-41 -45 -36 -92z" />
<glyph unicode="A" horiz-adv-x="804" d="M-46 58l323 1558l272 -135l-29 -129l54 11l294 -1330l-267 -58l-61 255l-276 -35l-57 -257zM22 92l143 -68l49 225l372 47l60 -249l150 32l-268 1214l-87 -19l39 175l-160 79zM265 478l134 606l137 -578zM341 546l121 12l-61 258z" />
<glyph unicode="B" horiz-adv-x="923" d="M-74 1365q347 183 548 183h11q193 -5 295 -112q93 -97 93 -254q0 -163 -97 -324q160 -88 160 -276q0 -141 -85 -275q-97 -150 -257 -232q-153 -79 -333 -79q-86 0 -171 20l-46 10l-10 1107zM5 1339l89 -192l10 -1073q78 -18 157 -18q164 0 305 72q146 75 234 212 q77 119 77 240q0 169 -157 239l-32 14q124 186 124 356q0 291 -328 299h-11q-178 0 -468 -149zM257 296l2 287q188 63 282 63q33 0 59 -7q100 -26 100 -96q0 -80 -129 -163q-108 -69 -314 -84zM260 843l2 385q108 36 172 36q51 0 89 -19q89 -44 89 -131q0 -80 -80 -160.5 t-272 -110.5zM318 361q135 15 221 69q91 59 100 105q1 4 1 8q0 7 -4 13q-23 30 -94 30q-80 0 -223 -47zM320 914q112 24 169 81q63 63 63 119q0 49 -56 78q-25 12 -61 12q-47 0 -113 -20z" />
<glyph unicode="C" horiz-adv-x="860" d="M-20 395q0 250 155 550q157 305 423 450l-1 112l292 40l-5 -706l-280 -99l-2 197q-92 -89 -171 -215q-93 -149 -99 -250v-8q0 -67 82 -68q109 0 447 233q27 -118 84 -353q-386 -271 -597 -271q-55 0 -99 18q-229 88 -229 370zM39 397q0 -243 191 -317q35 -13 79 -13 q186 0 527 237q-16 65 -54 228q-286 -193 -407 -193h-1q-142 0 -142 123q0 118 110 295q102 164 279 313l2 -244l162 57l3 596l-170 -24l1 -96q-277 -144 -431 -442q-149 -288 -149 -520z" />
<glyph unicode="D" horiz-adv-x="892" d="M-59 1317q232 204 437 204q59 0 118 -16q209 -57 319 -215q101 -145 101 -348q0 -137 -47 -279q-101 -304 -514 -533v-79l-272 -33l-9 1016l-51 -33zM8 1297l52 -200l73 47l9 -1058l153 19v61l15 8q407 221 502 508q44 133 44 261q0 182 -89 311q-98 142 -287 194 q-50 13 -101 13q-178 0 -371 -164zM296 421l5 782q57 9 99 9q111 0 184 -63q105 -91 105 -230q0 -121 -76 -246q-83 -138 -317 -252zM357 519q121 67 195 170q78 108 78 222q0 11 -1 22q-7 104 -84 170q-57 49 -148 49h-2q-17 0 -34 -1z" />
<glyph unicode="E" horiz-adv-x="774" d="M-55 1429l738 63l11 -333l-359 -35l-1 -105l352 30l-22 -330l-332 -39l-1 -271l466 40l11 -333q-206 -21 -375 -42l-376 -46l-9 1067l-47 -5zM15 1375l36 -219l57 5l9 -1065l309 38q156 19 320 36l-7 213l-468 -40l1 391l336 39l14 210l-348 -30l1 225l357 35l-7 213z " />
<glyph unicode="F" horiz-adv-x="739" d="M16 1433l291 40v-80l461 39l11 -333l-474 -47v-58l352 30l-21 -331l-333 -39l-3 -563l-271 -35zM76 1381l12 -1257l152 19l3 565l336 39l14 211l-348 -30v178l472 47l-7 213l-463 -39v78z" />
<glyph unicode="G" horiz-adv-x="937" d="M-31 420q0 250 155 550q157 305 423 450l-1 114l292 38l-5 -671l-280 -92l-2 155q-81 -79 -165 -209q-106 -163 -106 -260q0 -31 10.5 -52t47.5 -21q23 0 55 8q-3 213 -3 234v23q303 87 528 87q27 0 55 -1v-330q-45 1 -80 1h-33l33 -141q-385 -271 -596 -271 q-55 0 -99 18q-229 88 -229 370zM28 421q0 -242 191 -316q35 -13 79 -13q186 0 528 237l-41 172l36 2q51 2 92 2v210h-10q-188 0 -453 -74q1 -85 4 -256q-76 -23 -118 -23q-73 0 -99 54q-16 34 -16 78q0 127 129 317q105 155 211 243l49 40l2 -203l162 54l3 559l-170 -22 l1 -98q-277 -144 -431 -442q-149 -288 -149 -521z" />
<glyph unicode="H" horiz-adv-x="753" d="M41 1421l290 39l-2 -424l107 9l-3 418l291 39l-8 -1383l-271 -33l-6 624l-112 -13l-3 -620l-271 -33zM101 1369l11 -1257l152 19l3 620l231 27l6 -624l152 19l8 1261l-171 -23l3 -422l-227 -19l2 422z" />
<glyph unicode="I" horiz-adv-x="712" d="M-21 1453l739 64l11 -334l-215 -21l-5 -782l213 15l-27 -329l-605 -58l-68 339l212 14l-8 773l-191 -20zM49 1399l36 -219l201 20l8 -895l-200 -14l44 -219l501 48l17 211l-207 -15l5 900l213 21l-7 214z" />
<glyph unicode="J" horiz-adv-x="976" d="M-38 295l151 306q267 -226 380 -226q20 0 36 7q102 45 102 195q0 149 -76 322q-90 201 -215 235l-199 -20l-56 339l887 75l11 -333l-166 -16q134 -226 134 -522q0 -227 -88 -396q-104 -202 -330 -236q-23 -3 -48 -3q-210 0 -523 273zM36 310q267 -228 449 -228q20 0 39 3 q196 28 290 209q76 146 76 364q0 36 -3 73q-16 262 -175 498l209 20l-7 213l-759 -63l36 -219l153 14q154 -37 258 -253q89 -187 89 -364q0 -190 -138 -250q-27 -12 -59 -12q-129 0 -361 191z" />
<glyph unicode="K" horiz-adv-x="904" d="M-65 477l115 177l-6 766l291 40l-3 -375l364 554l242 -194l-515 -758l519 -307l-88 -305l-526 297l-1 -296l-272 -33l-2 337zM14 489l99 -81l2 -297l152 19l2 344l548 -309l54 187l-533 315l519 766l-147 118l-439 -670l3 511l-170 -24l6 -732z" />
<glyph unicode="L" horiz-adv-x="671" d="M-45 390l92 8l-10 1067l292 39l-7 -1082l372 32l11 -333l-693 -70zM25 336l37 -219l581 58l-7 213l-374 -32l7 1080l-172 -23l10 -1069z" />
<glyph unicode="M" horiz-adv-x="1074" d="M1 1446l266 105l295 -799l182 511l-1 242l291 43l-8 -1483l-272 -36l-3 435l-78 -173l-218 -82l-131 364l-3 -524l-272 -33l-11 1327zM77 1412l21 -59l11 -1269l152 19l5 808l225 -624l138 52l180 401l5 -643l152 20l8 1361l-171 -25l1 -200l-241 -677l-331 897z" />
<glyph unicode="N" horiz-adv-x="853" d="M-47 1415l257 157l318 -659l-4 546l291 43l-8 -1483l-271 -36l-2 269l-219 439l-3 -621l-272 -35l-10 1224zM31 1393l59 -120l10 -1170l152 19l4 821l338 -677l2 -215l151 20l8 1361l-171 -25l6 -760l-406 839z" />
<glyph unicode="O" horiz-adv-x="976" d="M-25 775q0 251 124 457q144 242 379 242q245 0 396 -250q130 -216 130 -478q0 -251 -124 -457q-145 -242 -380 -242q-245 0 -396 251q-129 215 -129 477zM35 775q0 -235 113 -433q133 -235 351 -235q209 0 337 224q108 189 108 414q0 236 -113 434q-134 235 -352 235 q-209 0 -337 -225q-107 -189 -107 -414zM187 804q0 140 66 254q79 135 209 135q152 0 248 -167q81 -142 81 -306q0 -141 -65 -256q-78 -136 -209 -136q-152 0 -248 169q-82 143 -82 307zM247 803q0 -142 64 -264q78 -149 208 -149q104 0 164 123q49 100 49 217 q0 131 -65 255q-78 147 -196 147q-107 0 -171 -116q-53 -97 -53 -213z" />
<glyph unicode="P" horiz-adv-x="846" d="M-67 1396q360 191 565 191q78 0 138 -25q241 -101 241 -347q0 -196 -142 -395q-151 -210 -409 -230l-3 -518l-271 -33l-11 1125zM12 1370l89 -192l10 -1071l152 19l3 521q278 10 420 208q132 184 132 359q0 207 -205 292q-49 21 -115 21q-183 0 -486 -157zM267 874l2 385 q108 36 172 36q51 0 89 -19q89 -44 89 -131q0 -80 -80 -160.5t-272 -110.5zM327 945q112 24 169 81q63 63 63 119q0 49 -56 78q-25 12 -61 12q-47 0 -113 -20z" />
<glyph unicode="Q" horiz-adv-x="1024" d="M-21 657q0 272 135 514q152 275 398 333q51 12 99 12q166 0 290 -141q158 -178 158 -477q0 -249 -112 -468q46 -96 86 -210q-137 -150 -206 -228q-27 58 -82 174q-150 -129 -315 -129q-170 0 -295 142q-156 178 -156 478zM39 657q0 -278 142 -439q106 -121 249 -121 q158 0 303 139l29 27q41 -78 81 -163q25 28 122 134q-34 92 -85 198l7 13q112 211 112 453q0 277 -142 438q-107 120 -246 120q-41 0 -85 -10q-225 -53 -365 -312q-122 -227 -122 -477zM209 705q0 162 74 310q86 172 228 209q30 8 59 8q97 0 169 -90q89 -110 89 -292 q0 -99 -44 -249q-136 180 -260 268l-131 -141q141 -115 277 -309q-105 -97 -205 -97q-111 0 -185 114q-71 110 -71 269zM269 705q0 -111 44 -205q56 -118 153 -118q64 0 124 46q-120 166 -285 293l210 226q143 -95 242 -213q11 56 11 116q0 160 -75 254q-55 69 -125 69 q-126 0 -221 -167q-78 -137 -78 -301z" />
<glyph unicode="R" horiz-adv-x="863" d="M-42 1383q230 182 425 182q36 0 71 -6q183 -29 297 -138q119 -115 119 -280q0 -58 -15 -119q-47 -183 -296 -296q206 -147 361 -393q-33 -59 -94 -141q-98 -129 -102 -135q-199 267 -382 404l-3 -383l-271 -35l-9 1036l-18 -11zM26 1360l53 -200l40 19l9 -1068l151 19 l3 445q250 -168 441 -417q45 56 127 173q-152 235 -418 407q147 59 219 108q117 80 145 190q14 54 14 104q0 144 -105 242q-99 92 -260 118q-30 5 -61 5q-169 0 -358 -145zM285 947l1 294q82 16 144 16q51 0 89 -11q113 -32 113 -105q0 -52 -68 -103q-71 -53 -279 -91z M345 1019q226 47 226 122q0 28 -68 47q-34 10 -77 10q-36 0 -80 -7z" />
<glyph unicode="S" horiz-adv-x="967" d="M-16 892q0 290 211 497q116 114 306 114q47 0 97 -7l-1 64l292 33l-4 -591l-281 -81l-2 237q-42 14 -83 14q-139 0 -207 -132q-26 -49 -26 -96q0 -64 57 -64q6 0 14 1q107 12 195 12q307 0 396 -150q56 -93 56 -191q0 -100 -59 -203q-113 -199 -374 -301 q-87 -34 -173 -34q-179 0 -379 163l188 269q92 -89 181 -89q36 0 80 12q59 15 130 49q107 51 107 97q0 67 -157 67q-121 0 -330 -37q-17 -3 -33 -3q-119 0 -170 156q-31 93 -31 194zM44 892q0 -91 28 -175q37 -114 113 -114q11 0 23 2q213 37 337 37q221 0 221 -124 q0 -41 -40 -84q-76 -81 -243 -124q-49 -12 -94 -12q-97 0 -172 58q-39 -56 -116 -167q149 -115 297 -115q76 0 151 30q241 94 344 274q51 90 51 174q0 82 -48 161q-71 120 -344 120q-85 0 -188 -12q-14 -2 -27 -2q-110 0 -110 125q0 101 77 189q87 99 214 99q60 0 124 -25 l20 -7l1 -199l162 47l3 477l-170 -19l1 -81q-95 17 -162 17q-163 0 -260 -96q-193 -189 -193 -454z" />
<glyph unicode="T" horiz-adv-x="790" d="M-66 1435l887 75l11 -333l-294 -28l-6 -1085l-272 -33l-10 1090l-261 -24zM4 1381l35 -220l270 26l10 -1088l153 19l6 1085l292 28l-7 213z" />
<glyph unicode="U" horiz-adv-x="857" d="M-27 382l80 14l-9 1037l291 40l-6 -1028l201 34l-8 954l291 40l-4 -714q-2 -421 -4 -670l-271 -33l-1 85l-498 -93zM43 334l40 -216l510 95l1 -89l151 19q2 213 4 616l4 646l-171 -24l8 -952l-321 -56l6 1032l-171 -24l9 -1035z" />
<glyph unicode="V" horiz-adv-x="770" d="M-60 1494l289 54l175 -862l145 867l279 -104l-253 -1384l-49 17l15 -76l-269 -52zM12 1446l306 -1422l153 30l-24 120l82 -29l231 1266l-164 60l-186 -1115l-228 1122z" />
<glyph unicode="W" horiz-adv-x="1037" d="M-28 1375l283 91l46 -417l78 419l290 -44l-49 -248l87 -327l77 688l293 -9l-185 -1465l-262 10l-136 479l-92 -460l-258 -79zM38 1333l156 -1242l156 47l134 669l192 -676l164 -6l169 1345l-171 5l-107 -948l-173 647l40 200l-171 26l-140 -759l-84 745z" />
<glyph unicode="X" horiz-adv-x="685" d="M-52 1368l246 185l117 -305l80 273l286 -72l-195 -642l255 -660l-232 -168l-156 389l-112 -369l-266 70l209 721zM21 1348l222 -554l-197 -683l150 -40l146 477l190 -475l132 96l-245 636l183 602l-170 42l-113 -389l-152 397z" />
<glyph unicode="Y" horiz-adv-x="845" d="M33 1442l300 41l-7 -460l209 36l-8 482l299 40l-9 -801l-247 -49l-4 -719l-277 -34l-7 695l-237 -47zM94 1390l10 -692l237 47l7 -699l159 20l4 715l247 49l7 683l-177 -24l8 -480l-331 -58l7 464z" />
<glyph unicode="Z" horiz-adv-x="849" d="M-27 315q160 281 480 841l-119 -14l-1 -128l-280 -81l-7 639l291 33v-122l478 44l11 -314l-497 -840l486 45l11 -333l-798 -81zM36 305l41 -235l688 69l-8 213l-539 -49l547 926l-8 232l-480 -44v120l-170 -19l5 -505l162 47l1 136l289 34z" />
<glyph unicode="[" horiz-adv-x="599" d="M0 1649l568 49l33 -329l-294 -30l-5 -1183q141 25 289 20v-331q-35 2 -69 2q-208 0 -489 -100q-7 435 -10 836q0 8 5 399q2 240 -9 399zM64 1595l15 -210q11 -160 9 -400q-5 -395 -5 -401q3 -380 8 -753q247 82 440 77v209q-116 0 -289 -33l5 1309l288 30l-21 211z" />
<glyph unicode="\" horiz-adv-x="950" d="M-47 1573l287 67l778 -1644l-266 -66zM40 1531l744 -1531l148 36l-726 1534z" />
<glyph unicode="]" horiz-adv-x="650" d="M15 85l293 30l5 1182q-143 -25 -288 -19v332q35 -2 68 -2q206 0 489 100q7 -437 9 -838q0 15 -5 -399q-2 -239 10 -399l20 -266l-569 -49zM81 31l20 -210l451 39l-16 208q-12 160 -9 400q4 419 4 401q-2 381 -7 755q-248 -82 -439 -77v-211q113 -1 288 34l-5 -1309z" />
<glyph unicode="^" horiz-adv-x="1226" d="M12 1395l605 251l551 -204l43 -337l-587 217l-588 -270zM75 1357l15 -215l532 244l517 -191l-26 203l-495 184z" />
<glyph unicode="_" horiz-adv-x="1034" d="M28 -13q589 91 1000 83v-330q-257 8 -489 -17t-501 -76zM90 -65l6 -216q492 91 872 83v209q-356 4 -878 -76z" />
<glyph unicode="`" />
<glyph unicode="a" horiz-adv-x="772" d="M-47 122l276 1182l35 -8l-37 167l272 135l324 -1558l-255 -120l-76 343l-229 -28l-46 -179zM25 166l149 -38l41 161l324 40l72 -323l143 68l-298 1436l-160 -79l47 -215l-69 16zM272 517l120 476l101 -453zM351 585l69 7l-31 141z" />
<glyph unicode="b" horiz-adv-x="888" d="M-69 1360q217 174 405 174h13q182 -5 308 -100q134 -101 162 -275q5 -29 5 -56q0 -120 -85 -226q179 -147 179 -366q0 -84 -33 -160q-63 -146 -260 -245q-168 -84 -465 -84q-53 0 -119 2l-9 1029l-16 -13zM-1 1338l51 -194l40 31l11 -1093q25 -1 48 -1q207 0 365 47 q241 73 316 246q30 69 30 140q0 203 -209 354q113 124 113 233q0 24 -4 48q-25 153 -143 240q-110 81 -269 86h-9q-162 0 -340 -137zM254 304l2 353q121 50 200 50q50 0 92 -18q124 -52 124 -153q0 -83 -86 -155q-90 -77 -320 -77h-12zM258 926l1 313q61 11 111 11 q60 0 103 -16q107 -39 107 -114q0 -52 -57 -102q-65 -55 -265 -92zM314 364q164 3 234 62q64 55 64 109q0 62 -88 99q-30 13 -69 13q-60 0 -139 -30zM318 999q201 43 201 121q0 33 -67 58q-37 13 -84 13q-23 0 -49 -3z" />
<glyph unicode="c" horiz-adv-x="846" d="M-23 426q0 170 65 354q88 250 259 439q191 213 423 272l34 9q16 -130 47 -389q-158 -30 -303 -201q-61 -73 -121 -170q-94 -151 -94 -235q0 -60 49 -80q10 -4 25 -4q108 0 453 236q14 -58 42 -175t43 -176q-261 -183 -433 -234q-99 -29 -179 -29q-161 0 -240 113 q-70 99 -70 270zM35 424q0 -320 255 -320q71 0 159 26q157 46 382 202q-18 76 -55 227q-294 -197 -418 -197q-25 0 -44 8q-87 35 -87 130q0 176 229 448q145 172 283 210q-12 88 -33 265q-277 -85 -479 -399q-192 -300 -192 -600z" />
<glyph unicode="d" horiz-adv-x="954" d="M40 1418l291 42l-1 -89q201 105 339 105q104 0 173 -59q146 -126 146 -349q0 -296 -215 -631q-187 -294 -508 -398l-216 76zM100 1366l9 -1209l156 -54q285 95 458 366q205 321 205 598q0 196 -125 304q-52 45 -135 45q-136 0 -399 -148l1 122zM261 330l5 661 q245 147 358 147q35 0 60 -13q79 -42 79 -138q0 -159 -178 -395q-130 -172 -324 -262zM322 427q116 68 226.5 215.5t144.5 279.5q10 36 10 64q0 61 -47 86q-13 7 -33 7q-91 0 -297 -122z" />
<glyph unicode="e" horiz-adv-x="702" d="M30 1452l291 40v-64l359 36l11 -333l-372 -44v-51l310 28l64 -321l-376 -47l-2 -245l372 41l41 -317l-684 -108zM91 1400l12 -1263l558 88l-26 201l-380 -41l2 365l365 45l-41 205l-323 -30l1 171l370 44l-7 213l-361 -36v62z" />
<glyph unicode="f" horiz-adv-x="675" d="M-62 1435l739 64l11 -334l-359 -35l-1 -103l303 28l64 -322l-369 -46l-4 -618l-271 -35l-10 1067l-46 -5zM8 1381l37 -219l56 5l10 -1065l151 19l4 620l357 44l-40 206l-315 -30l1 223l357 35l-7 214z" />
<glyph unicode="g" horiz-adv-x="937" d="M-27 419q0 174 66 361q88 250 258 439q191 212 423 272l34 9q16 -130 48 -389q-216 -41 -409 -350q293 83 513 83q28 0 55 -1v-330q-57 2 -94 2h-22q22 -96 51 -209q-376 -264 -609 -264q-61 0 -113 18q-201 70 -201 359zM32 422q0 -318 255 -318q71 0 159 26 q157 46 382 202q-26 100 -57 238l35 3q34 2 70 2h25v210h-10q-187 0 -452 -74q0 -40 1 -116l2 -99q87 27 235 60q0 -35 -12 -53q-20 -30 -88 -63l-16 -8q-147 -72 -217 -72q-45 0 -72 25q-48 43 -48 116q0 185 243 463q138 157 269 194q-12 88 -34 265q-277 -86 -479 -400 q-191 -300 -191 -601zM285 501q0 -47 27 -72q10 -9 32 -9q16 0 39 5q-4 306 -4 309v11q-94 -153 -94 -244z" />
<glyph unicode="h" horiz-adv-x="811" d="M43 1408l290 40l-2 -366l155 13l-3 355l291 40l-8 -1382l-271 -35l-6 689l-160 -19l-3 -677l-271 -35zM103 1356l11 -1257l152 19l3 679l279 33l6 -689l152 19l8 1262l-171 -24l3 -359l-275 -23l2 364z" />
<glyph unicode="i" horiz-adv-x="381" d="M46 1450l291 40l-8 -1382l-271 -35zM106 1398l11 -1257l152 19l8 1262z" />
<glyph unicode="j" horiz-adv-x="926" d="M-35 324l151 307q260 -220 374 -220q24 0 42 9q105 53 105 210q0 168 -95 356q-48 96 -97 134q-56 43 -151 47l133 343q332 -91 450 -421q74 -208 74 -419q0 -445 -322 -597q-61 -28 -131 -28q-213 0 -533 279zM39 339q274 -234 459 -234q57 0 105 23q288 135 288 541 q0 201 -71 400q-102 286 -357 368l-84 -217q141 -32 236 -244q81 -181 81 -347q0 -193 -137 -263q-30 -15 -68 -15q-129 0 -355 185z" />
<glyph unicode="k" horiz-adv-x="831" d="M32 1418l291 40l-3 -603l276 668l270 -129l-345 -806l351 -226l-98 -302l-378 235l-90 -221l-262 -33zM92 1366l11 -1257l161 21l103 253l374 -231l60 184l-355 230l342 798l-161 77l-369 -892l5 841z" />
<glyph unicode="l" horiz-adv-x="676" d="M29 1440l291 39l-6 -1040l372 41l41 -318l-684 -107zM90 1388l12 -1263l558 87l-26 202l-380 -41l6 1038z" />
<glyph unicode="m" horiz-adv-x="1066" d="M43 1426l282 39l203 -612l222 621l283 42l-8 -1483l-271 -36l-5 631l-76 -197l26 -64l-256 -111l-114 305l-3 -477l-270 -35zM103 1374l12 -1257l151 19l5 751l206 -551l145 63l-13 32l197 517l7 -883l152 20l8 1361l-179 -26l-268 -751l-242 730z" />
<glyph unicode="n" horiz-adv-x="858" d="M43 1458l280 41l216 -466l-3 454l291 43l-8 -1492l-271 -36l-4 356l-213 426l-4 -766l-271 -36zM103 1406l12 -1356l152 20l6 966l331 -664l3 -302l152 20l8 1370l-171 -25l5 -678l-314 676z" />
<glyph unicode="o" horiz-adv-x="1008" d="M-23 643q0 271 135 514q152 276 397 334q51 12 99 12q165 0 290 -141q158 -178 158 -477q0 -298 -155 -545q-156 -251 -378 -303q-52 -12 -100 -12q-166 0 -290 141q-156 178 -156 477zM37 643q0 -277 142 -438q106 -120 244 -120q41 0 86 10q198 47 342 276 q145 234 145 514q0 277 -142 437q-108 121 -246 121q-41 0 -85 -10q-224 -53 -364 -313q-122 -228 -122 -477zM206 692q0 162 74 309q86 172 228 209q30 8 59 8q97 0 170 -90q89 -109 89 -292q0 -162 -74 -310q-86 -172 -228 -209q-33 -8 -62 -8q-123 0 -196 133 q-60 112 -60 250zM266 692q0 -142 60.5 -233t147.5 -91q118 0 213 166q79 137 79 302q0 161 -76 255q-55 68 -125 68q-126 0 -221 -166q-78 -137 -78 -301z" />
<glyph unicode="p" horiz-adv-x="813" d="M-67 1363q232 183 427 183q51 0 100 -11q174 -40 278 -147q107 -111 107 -259q0 -101 -51 -206q-99 -203 -476 -289l-4 -577l-271 -33l-9 1035l-17 -12zM1 1340l53 -200l40 19l9 -1067l151 19l4 571q392 84 482 267q45 93 45 180q0 127 -95 222q-91 91 -243 125 q-42 10 -86 10q-169 0 -360 -146zM260 928l1 294q87 17 141 17q50 0 92 -13q113 -33 113 -105q0 -52 -67 -103q-72 -53 -280 -90zM320 1000q226 46 226 121q0 28 -68 48q-34 10 -78 10q-36 0 -79 -7z" />
<glyph unicode="q" horiz-adv-x="986" d="M-14 778q0 64 8 122q38 288 210 452q131 124 284 124q132 0 252 -91q116 -88 186 -233q88 -181 88 -399q0 -175 -59 -329q40 -89 80 -197q-55 -58 -96 -103l-113 -124q-21 48 -66 144q-117 -94 -249 -94q-54 0 -111 16q-204 58 -317 280q-97 191 -97 432zM45 776 q0 -208 81 -378q62 -129 162 -207q105 -82 220 -82q128 0 242 105l29 27q37 -75 64 -133l52 56q35 39 70 77q-32 85 -75 181q64 161 64 336q0 199 -82 368q-62 129 -163 207q-105 82 -220 82q-130 0 -243 -107q-201 -190 -201 -532zM197 804q0 205 117 319q72 71 157 71 q81 0 158 -62q71 -57 114 -145q56 -116 56 -258q0 -48 -6 -131q-147 193 -269 278l-130 -140q150 -124 292 -335q-85 -69 -171 -69q-161 0 -260 206q-58 122 -58 266zM255 810q0 -158 79 -288q80 -133 186 -133q43 0 85 25q-126 180 -299 316l209 224q132 -87 225 -192 q-6 106 -51 199q-35 71 -90 119q-63 54 -126 54t-117 -53q-101 -99 -101 -271z" />
<glyph unicode="r" horiz-adv-x="857" d="M-67 1367q355 188 558 188q57 0 104 -14q282 -78 282 -354q0 -140 -77 -294q-94 -189 -274 -276l380 -240l-204 -242l-377 233l-2 -326l-271 -33l-11 1125zM12 1341l89 -193l10 -1071l152 19l3 380l424 -263l126 150l-421 266q134 50 207 107q86 68 144 184 q72 142 72 267q0 230 -239 297q-39 11 -87 11q-182 0 -480 -154zM268 844l1 386q108 35 171 35q51 0 90 -19q90 -45 90 -128q0 -84 -81 -164t-271 -110zM328 915q111 24 168 81q64 63 64 118q0 50 -57 79q-25 12 -63 12q-46 0 -111 -19z" />
<glyph unicode="s" horiz-adv-x="959" d="M-21 899q0 165 77 309q78 148 219 239q94 61 222 61q145 0 360 -87q-40 -111 -127 -331q-134 85 -212 85q-28 0 -53 -8q-76 -25 -127 -80q-57 -62 -57 -135q0 -14 2 -27q7 -44 55 -44q7 0 14 1q107 12 195 12q307 0 396 -150q55 -93 55 -190q0 -101 -59 -204 q-113 -199 -373 -301q-88 -34 -173 -34q-180 0 -379 163l188 268q92 -88 180 -88q36 0 80 11q59 15 130 50q107 52 107 97q0 67 -156 67q-121 0 -330 -37q-17 -3 -34 -3q-128 0 -177 181q-23 86 -23 175zM39 899q0 -81 21 -160q37 -136 120 -136q11 0 23 3q213 37 337 37 q220 0 220 -123q0 -42 -39 -85q-77 -81 -244 -124q-49 -13 -94 -13q-97 0 -171 58l-117 -166q150 -115 298 -115q75 0 151 30q240 94 343 274q51 90 51 175q0 81 -47 160q-71 120 -344 120q-85 0 -188 -12q-14 -2 -27 -2q-111 0 -111 124q0 101 78 190q88 99 215 99 q90 0 188 -55q25 70 77 209q-159 61 -281 61q-111 0 -190 -52q-128 -82 -198.5 -214.5t-70.5 -282.5z" />
<glyph unicode="t" horiz-adv-x="740" d="M-57 1459l798 48l47 -330l-282 -20l-7 -1089l-271 -35l-10 1104l-240 -17zM9 1403l23 -219l246 17l10 -1100l151 19l7 1093l274 20l-31 210z" />
<glyph unicode="u" horiz-adv-x="796" d="M37 1441l290 40l-6 -1038l160 28l-8 970l291 40l-6 -962l54 9l73 -323l-128 -23l-1 -83l-272 -35v68l-436 -69q-4 459 -11 1378zM97 1389l11 -1256l436 69v-70l152 19l1 81l116 21l-47 207l-68 -11l6 964l-171 -24l8 -968l-280 -50l6 1042z" />
<glyph unicode="v" horiz-adv-x="808" d="M-59 1362l269 125l185 -743l184 844l289 -66l-352 -1524l-269 66l17 78zM12 1328l313 -1184l-7 -36l153 -38l325 1406l-172 40l-225 -1036l-230 921z" />
<glyph unicode="w" horiz-adv-x="1080" d="M-27 1409l285 81l48 -550l100 399l260 134l118 -503l41 525l293 5l-134 -1474l-264 -1l-176 719l-173 -632l-259 -70zM38 1365l127 -1247l157 43l225 821l220 -897l162 1l123 1352l-172 -3l-65 -855l-190 805l-168 -86l-180 -721l-72 834z" />
<glyph unicode="x" horiz-adv-x="719" d="M-38 1353l246 180l158 -400l109 370l287 -70l-227 -730l216 -546l-232 -164l-115 282l-82 -263l-266 69l179 605zM35 1333l263 -643l-167 -567l150 -39l115 369l150 -368l132 94l-206 522l214 688l-170 42l-141 -482l-194 490z" />
<glyph unicode="y" horiz-adv-x="800" d="M30 1411l292 40l-6 -656l159 27l-8 687l292 39l-9 -1046l-201 -24l-2 -431l-271 -33l-3 430l-230 -28zM91 1359l11 -875l230 28l3 -430l152 19l2 431l202 24l7 924l-170 -23l8 -685l-281 -49l6 660z" />
<glyph unicode="z" horiz-adv-x="820" d="M-53 326l479 841l-284 -33l-58 339l704 65l11 -314l-497 -840l486 45l11 -333l-798 -81zM10 316l40 -235l687 69l-7 213l-539 -49l547 926l-8 232l-576 -53l37 -219l346 41z" />
<glyph unicode="{" horiz-adv-x="680" d="M2 700l178 384l-86 287l-21 271l570 50l33 -330l-284 -29l79 -250l-180 -374l208 -350l-56 -206q112 21 222 16v-330q-62 4 -117 4q-245 0 -476 -70l146 573zM70 704l213 -348l-127 -496q196 50 449 42v209q-61 1 -245 -36l74 276l-211 354l183 382l-93 298l298 31 l-21 212l-452 -40l15 -205l91 -303z" />
<glyph unicode="|" horiz-adv-x="390" d="M42 1635l291 53l-7 -1810l-272 -45zM102 1585l12 -1682l152 25l7 1688z" />
<glyph unicode="}" horiz-adv-x="672" d="M12 113l284 29l-79 250l179 375l-208 350l56 206q-112 -21 -222 -16v331q62 -4 119 -4q241 0 475 70l-146 -574l216 -355l-178 -384l85 -286l21 -270l-569 -50zM77 59l21 -210l451 40l-15 204l-90 302l174 376l-213 349l127 497q-204 -52 -450 -42v-210q61 -1 245 36 l-74 -276l211 -354l-182 -383l93 -298z" />
<glyph unicode="&#xa0;" />
<glyph unicode="&#xa8;" />
<glyph unicode="&#xa9;" horiz-adv-x="1596" d="M-32 676q0 367 294 638q284 262 642 262q271 0 476 -169q246 -203 246 -530t-243 -588q-135 -145 -319 -228.5t-375 -83.5q-272 0 -476 169q-245 202 -245 530zM28 676q0 -284 198 -464q189 -172 468 -172q50 0 99 6q314 38 540 275q233 244 233 556q0 283 -198 463 q-189 173 -468 173q-49 0 -100 -7q-313 -39 -539 -275q-233 -243 -233 -555zM187 674q-10 184 145 401q79 108 218.5 190t271.5 93q51 4 91 4q168 0 302 -98q91 -65 133 -152l21 -44q37 -102 37 -190q0 -86 -39 -208q-57 -179 -233 -320q-178 -144 -364 -156q-51 -3 -89 -3 q-185 0 -305 98l-38 31q-81 78 -114 161q-31 75 -37 193zM248 684q0 -28 2 -61q7 -141 128 -259q140 -114 297 -114q36 0 91 4q168 11 330 142t214 292q37 114 37 190t-33 166q-56 115 -134 172q-120 87 -281 87q-148 0 -290.5 -72.5t-227.5 -191.5q-76 -106 -103 -173 q-30 -77 -30 -182zM446 601q0 187 137 405q127 202 363 263l30 -261q-102 -20 -188 -121q-128 -152 -128 -238q0 -40 34 -40q61 0 283 153q19 -86 58 -239q-247 -173 -380 -173q-47 0 -82 19q-127 68 -127 232zM507 628q-9 -151 94 -207q23 -12 54 -12q109 0 312 140 l-29 114q-170 -113 -247 -113q-17 0 -31 5q-59 24 -59 92q0 100 112 241q108 137 198 166q-6 46 -17 138q-154 -52 -269 -228q-107 -166 -118 -336z" />
<glyph unicode="&#xaa;" horiz-adv-x="772" d="M-47 122l276 1182l35 -8l-37 167l272 135l324 -1558l-255 -120l-76 343l-229 -28l-46 -179zM25 166l149 -38l41 161l324 40l72 -323l143 68l-298 1436l-160 -79l47 -215l-69 16zM272 517l120 476l101 -453zM351 585l69 7l-31 141z" />
<glyph unicode="&#xad;" horiz-adv-x="607" d="M26 914q332 94 584 86v-330q-155 7 -282.5 -17.5t-294.5 -82.5q-3 110 -7 344zM87 868l3 -215q257 83 460 79v210q-194 1 -463 -74z" />
<glyph unicode="&#xae;" horiz-adv-x="1599" d="M-29 676q0 367 294 638q284 262 642 262q271 0 476 -169q246 -203 246 -530t-243 -588q-134 -145 -318.5 -228.5t-375.5 -83.5q-272 0 -476 169q-245 202 -245 530zM31 676q0 -284 198 -464q189 -172 468 -172q50 0 99 6q314 38 540 275q233 244 233 556q0 283 -198 463 q-189 173 -468 173q-49 0 -99 -7q-314 -39 -540 -275q-233 -243 -233 -555zM190 675q0 197 109 350q143 198 341 283q132 56 264 56q177 0 314 -100q91 -65 133 -152l21 -44q37 -102 37 -190q0 -86 -39 -208q-57 -180 -233.5 -321.5t-363.5 -154.5q-56 -4 -96 -4 q-180 0 -333.5 128t-153.5 357zM252 685q0 -29 2 -62q9 -169 150 -279q136 -106 306 -94q136 9 216 42q73 30 188 117q145 110 217 335q19 60 19 124q0 84 -33 176q-56 115 -134 172q-120 87 -281 87q-148 0 -290.5 -72.5t-227.5 -191.5q-76 -105 -102 -173 q-30 -76 -30 -181zM520 1063q197 104 303 104q31 0 57 -8q154 -43 154 -197q0 -82 -46 -163.5t-117 -123.5l186 -117l-123 -146l-180 111l-1 -152l-167 -20l-5 584zM599 1037l42 -88l5 -530l47 6l1 206l228 -141l45 54l-225 142q83 31 115 53q51 34 83 97q35 69 35 128 q0 106 -111 138q-18 5 -41 5q-84 0 -224 -70zM696 774l1 224l20 6q52 18 92 18q94 0 94 -93q1 -123 -207 -155zM756 846q88 24 87 82q0 35 -35 35q-19 0 -51 -9z" />
<glyph unicode="&#xb2;" horiz-adv-x="993" d="M-35 1216q380 280 592 264q340 -24 340 -431q0 -93 -19 -196q-44 -226 -165 -419q156 8 312 4v-330q-255 7 -489 -20t-477 -74l-10 341q38 6 116 17q132 37 263 236q116 175 148 331q7 36 7 66q0 87 -67 118q-14 6 -33 6q-114 0 -429 -225zM34 1192l55 -190 q268 187 395 187q32 0 57 -11q102 -47 102 -174q0 -186 -178 -448q-138 -202 -289 -242q-18 -3 -46 -8l-20 -3l7 -217q477 90 848 84v210q-137 2 -371 -14q177 255 225 499q19 99 19 187q0 348 -286 369q-185 13 -518 -229z" />
<glyph unicode="&#xb3;" horiz-adv-x="904" d="M-22 1352q230 173 424 167q178 -6 299 -97q132 -99 153 -270q2 -20 2 -40q0 -124 -93 -232q162 -139 162 -378q0 -107 -40 -198q-69 -158 -269 -244q-100 -43 -237 -43q-140 0 -350 50l80 311q185 -58 289 -58q83 0 132 32q96 63 96 149q0 106 -130 184q-50 30 -113 30 q-85 0 -237 -72l5 332q112 11 177 23q128 25 171 67q34 32 34 56q0 66 -175 63q-126 -2 -309 -146zM45 1327l42 -184q141 99 271 101q149 2 208 -58q28 -30 28 -64q0 -55 -60 -107q-80 -69 -324 -94l-3 -184q95 38 175 38q81 0 145 -39q159 -95 159 -237q0 -116 -123 -197 q-63 -42 -166 -42q-102 0 -245 42l-50 -191q155 -34 275 -34q127 0 215 38q179 77 239 213q34 80 34 174q0 232 -164 350l-28 20q123 127 123 239q0 16 -2 33q-18 149 -133 233q-105 77 -261 82q-166 5 -355 -132z" />
<glyph unicode="&#xb9;" horiz-adv-x="563" d="M-3 1277l258 155l271 37l-8 -1384l-272 -33l-17 1000l-183 -97zM62 1247l31 -200l194 103l18 -1030l153 19l7 1262l-190 -27z" />
<glyph unicode="&#xba;" horiz-adv-x="1008" d="M-23 643q0 271 135 514q152 276 397 334q51 12 99 12q165 0 290 -141q158 -178 158 -477q0 -298 -155 -545q-156 -251 -378 -303q-52 -12 -100 -12q-166 0 -290 141q-156 178 -156 477zM37 643q0 -277 142 -438q106 -120 244 -120q41 0 86 10q198 47 342 276 q145 234 145 514q0 277 -142 437q-108 121 -246 121q-41 0 -85 -10q-224 -53 -364 -313q-122 -228 -122 -477zM206 692q0 162 74 309q86 172 228 209q30 8 59 8q97 0 170 -90q89 -109 89 -292q0 -162 -74 -310q-86 -172 -228 -209q-33 -8 -62 -8q-123 0 -196 133 q-60 112 -60 250zM266 692q0 -142 60.5 -233t147.5 -91q118 0 213 166q79 137 79 302q0 161 -76 255q-55 68 -125 68q-126 0 -221 -166q-78 -137 -78 -301z" />
<glyph unicode="&#xc0;" horiz-adv-x="804" d="M-46 58l323 1558l272 -135l-29 -129l54 11l294 -1330l-267 -58l-61 255l-276 -35l-57 -257zM22 92l143 -68l49 225l372 47l60 -249l150 32l-268 1214l-87 -19l39 175l-160 79zM265 478l134 606l137 -578zM341 546l121 12l-61 258z" />
<glyph unicode="&#xc2;" horiz-adv-x="804" d="M-322 2081l605 251l551 -204l43 -337l-587 217l-588 -270zM-259 2043l15 -215l532 244l517 -191l-26 203l-495 184zM-46 58l323 1558l272 -135l-29 -129l54 11l294 -1330l-267 -58l-61 255l-276 -35l-57 -257zM22 92l143 -68l49 225l372 47l60 -249l150 32l-268 1214 l-87 -19l39 175l-160 79zM265 478l134 606l137 -578zM341 546l121 12l-61 258z" />
<glyph unicode="&#xc4;" horiz-adv-x="804" d="M-46 58l323 1558l272 -135l-29 -129l54 11l294 -1330l-267 -58l-61 255l-276 -35l-57 -257zM22 92l143 -68l49 225l372 47l60 -249l150 32l-268 1214l-87 -19l39 175l-160 79zM265 478l134 606l137 -578zM341 546l121 12l-61 258z" />
<glyph unicode="&#xc8;" horiz-adv-x="774" d="M-55 1429l738 63l11 -333l-359 -35l-1 -105l352 30l-22 -330l-332 -39l-1 -271l466 40l11 -333q-206 -21 -375 -42l-376 -46l-9 1067l-47 -5zM15 1375l36 -219l57 5l9 -1065l309 38q156 19 320 36l-7 213l-468 -40l1 391l336 39l14 210l-348 -30l1 225l357 35l-7 213z " />
<glyph unicode="&#xca;" horiz-adv-x="774" d="M84 1957l605 251l551 -204l43 -337l-587 217l-588 -270zM147 1919l15 -215l532 244l517 -191l-26 203l-495 184zM-55 1429l738 63l11 -333l-359 -35l-1 -105l352 30l-22 -330l-332 -39l-1 -271l466 40l11 -333q-206 -21 -375 -42l-376 -46l-9 1067l-47 -5zM15 1375 l36 -219l57 5l9 -1065l309 38q156 19 320 36l-7 213l-468 -40l1 391l336 39l14 210l-348 -30l1 225l357 35l-7 213z" />
<glyph unicode="&#xcb;" horiz-adv-x="774" d="M-55 1429l738 63l11 -333l-359 -35l-1 -105l352 30l-22 -330l-332 -39l-1 -271l466 40l11 -333q-206 -21 -375 -42l-376 -46l-9 1067l-47 -5zM15 1375l36 -219l57 5l9 -1065l309 38q156 19 320 36l-7 213l-468 -40l1 391l336 39l14 210l-348 -30l1 225l357 35l-7 213z " />
<glyph unicode="&#xcc;" horiz-adv-x="712" d="M-21 1453l739 64l11 -334l-215 -21l-5 -782l213 15l-27 -329l-605 -58l-68 339l212 14l-8 773l-191 -20zM49 1399l36 -219l201 20l8 -895l-200 -14l44 -219l501 48l17 211l-207 -15l5 900l213 21l-7 214z" />
<glyph unicode="&#xce;" horiz-adv-x="712" d="M118 1982l605 251l551 -204l43 -337l-587 217l-588 -270zM181 1944l15 -215l532 244l517 -191l-26 203l-495 184zM-21 1453l739 64l11 -334l-215 -21l-5 -782l213 15l-27 -329l-605 -58l-68 339l212 14l-8 773l-191 -20zM49 1399l36 -219l201 20l8 -895l-200 -14l44 -219 l501 48l17 211l-207 -15l5 900l213 21l-7 214z" />
<glyph unicode="&#xcf;" horiz-adv-x="712" d="M-21 1453l739 64l11 -334l-215 -21l-5 -782l213 15l-27 -329l-605 -58l-68 339l212 14l-8 773l-191 -20zM49 1399l36 -219l201 20l8 -895l-200 -14l44 -219l501 48l17 211l-207 -15l5 900l213 21l-7 214z" />
<glyph unicode="&#xd2;" />
<glyph unicode="&#xd3;" />
<glyph unicode="&#xd4;" />
<glyph unicode="&#xd5;" />
<glyph unicode="&#xd6;" horiz-adv-x="976" d="M-25 775q0 251 124 457q144 242 379 242q245 0 396 -250q130 -216 130 -478q0 -251 -124 -457q-145 -242 -380 -242q-245 0 -396 251q-129 215 -129 477zM35 775q0 -235 113 -433q133 -235 351 -235q209 0 337 224q108 189 108 414q0 236 -113 434q-134 235 -352 235 q-209 0 -337 -225q-107 -189 -107 -414zM187 804q0 140 66 254q79 135 209 135q152 0 248 -167q81 -142 81 -306q0 -141 -65 -256q-78 -136 -209 -136q-152 0 -248 169q-82 143 -82 307zM247 803q0 -142 64 -264q78 -149 208 -149q104 0 164 123q49 100 49 217 q0 131 -65 255q-78 147 -196 147q-107 0 -171 -116q-53 -97 -53 -213z" />
<glyph unicode="&#xd9;" horiz-adv-x="857" d="M-27 382l80 14l-9 1037l291 40l-6 -1028l201 34l-8 954l291 40l-4 -714q-2 -421 -4 -670l-271 -33l-1 85l-498 -93zM43 334l40 -216l510 95l1 -89l151 19q2 213 4 616l4 646l-171 -24l8 -952l-321 -56l6 1032l-171 -24l9 -1035z" />
<glyph unicode="&#xdb;" horiz-adv-x="857" d="M-26 1939l605 251l551 -204l43 -337l-587 217l-588 -270zM37 1901l15 -215l532 244l517 -191l-26 203l-495 184zM-27 382l80 14l-9 1037l291 40l-6 -1028l201 34l-8 954l291 40l-4 -714q-2 -421 -4 -670l-271 -33l-1 85l-498 -93zM43 334l40 -216l510 95l1 -89l151 19 q2 213 4 616l4 646l-171 -24l8 -952l-321 -56l6 1032l-171 -24l9 -1035z" />
<glyph unicode="&#xdc;" horiz-adv-x="857" d="M-27 382l80 14l-9 1037l291 40l-6 -1028l201 34l-8 954l291 40l-4 -714q-2 -421 -4 -670l-271 -33l-1 85l-498 -93zM43 334l40 -216l510 95l1 -89l151 19q2 213 4 616l4 646l-171 -24l8 -952l-321 -56l6 1032l-171 -24l9 -1035z" />
<glyph unicode="&#xe0;" horiz-adv-x="772" d="M-47 122l276 1182l35 -8l-37 167l272 135l324 -1558l-255 -120l-76 343l-229 -28l-46 -179zM25 166l149 -38l41 161l324 40l72 -323l143 68l-298 1436l-160 -79l47 -215l-69 16zM272 517l120 476l101 -453zM351 585l69 7l-31 141z" />
<glyph unicode="&#xe2;" horiz-adv-x="772" d="M-100 2063l605 251l551 -204l43 -337l-587 217l-588 -270zM-37 2025l15 -215l532 244l517 -191l-26 203l-495 184zM-47 122l276 1182l35 -8l-37 167l272 135l324 -1558l-255 -120l-76 343l-229 -28l-46 -179zM25 166l149 -38l41 161l324 40l72 -323l143 68l-298 1436 l-160 -79l47 -215l-69 16zM272 517l120 476l101 -453zM351 585l69 7l-31 141z" />
<glyph unicode="&#xe4;" horiz-adv-x="772" d="M-47 122l276 1182l35 -8l-37 167l272 135l324 -1558l-255 -120l-76 343l-229 -28l-46 -179zM25 166l149 -38l41 161l324 40l72 -323l143 68l-298 1436l-160 -79l47 -215l-69 16zM272 517l120 476l101 -453zM351 585l69 7l-31 141z" />
<glyph unicode="&#xe8;" horiz-adv-x="702" d="M30 1452l291 40v-64l359 36l11 -333l-372 -44v-51l310 28l64 -321l-376 -47l-2 -245l372 41l41 -317l-684 -108zM91 1400l12 -1263l558 88l-26 201l-380 -41l2 365l365 45l-41 205l-323 -30l1 171l370 44l-7 213l-361 -36v62z" />
<glyph unicode="&#xea;" horiz-adv-x="702" d="M-278 1968l605 251l551 -204l43 -337l-587 217l-588 -270zM-215 1930l15 -215l532 244l517 -191l-26 203l-495 184zM30 1452l291 40v-64l359 36l11 -333l-372 -44v-51l310 28l64 -321l-376 -47l-2 -245l372 41l41 -317l-684 -108zM91 1400l12 -1263l558 88l-26 201 l-380 -41l2 365l365 45l-41 205l-323 -30l1 171l370 44l-7 213l-361 -36v62z" />
<glyph unicode="&#xeb;" horiz-adv-x="702" d="M30 1452l291 40v-64l359 36l11 -333l-372 -44v-51l310 28l64 -321l-376 -47l-2 -245l372 41l41 -317l-684 -108zM91 1400l12 -1263l558 88l-26 201l-380 -41l2 365l365 45l-41 205l-323 -30l1 171l370 44l-7 213l-361 -36v62z" />
<glyph unicode="&#xec;" horiz-adv-x="381" d="M46 1450l291 40l-8 -1382l-271 -35zM106 1398l11 -1257l152 19l8 1262z" />
<glyph unicode="&#xee;" horiz-adv-x="381" d="M-262 1968l605 251l551 -204l43 -337l-587 217l-588 -270zM-199 1930l15 -215l532 244l517 -191l-26 203l-495 184zM46 1450l291 40l-8 -1382l-271 -35zM106 1398l11 -1257l152 19l8 1262z" />
<glyph unicode="&#xef;" horiz-adv-x="381" d="M46 1450l291 40l-8 -1382l-271 -35zM106 1398l11 -1257l152 19l8 1262z" />
<glyph unicode="&#xf2;" horiz-adv-x="1008" d="M-23 643q0 271 135 514q152 276 397 334q51 12 99 12q165 0 290 -141q158 -178 158 -477q0 -298 -155 -545q-156 -251 -378 -303q-52 -12 -100 -12q-166 0 -290 141q-156 178 -156 477zM37 643q0 -277 142 -438q106 -120 244 -120q41 0 86 10q198 47 342 276 q145 234 145 514q0 277 -142 437q-108 121 -246 121q-41 0 -85 -10q-224 -53 -364 -313q-122 -228 -122 -477zM206 692q0 162 74 309q86 172 228 209q30 8 59 8q97 0 170 -90q89 -109 89 -292q0 -162 -74 -310q-86 -172 -228 -209q-33 -8 -62 -8q-123 0 -196 133 q-60 112 -60 250zM266 692q0 -142 60.5 -233t147.5 -91q118 0 213 166q79 137 79 302q0 161 -76 255q-55 68 -125 68q-126 0 -221 -166q-78 -137 -78 -301z" />
<glyph unicode="&#xf4;" horiz-adv-x="1008" d="M8 1968l605 251l551 -204l43 -337l-587 217l-588 -270zM71 1930l15 -215l532 244l517 -191l-26 203l-495 184zM-23 643q0 271 135 514q152 276 397 334q51 12 99 12q165 0 290 -141q158 -178 158 -477q0 -298 -155 -545q-156 -251 -378 -303q-52 -12 -100 -12 q-166 0 -290 141q-156 178 -156 477zM37 643q0 -277 142 -438q106 -120 244 -120q41 0 86 10q198 47 342 276q145 234 145 514q0 277 -142 437q-108 121 -246 121q-41 0 -85 -10q-224 -53 -364 -313q-122 -228 -122 -477zM206 692q0 162 74 309q86 172 228 209q30 8 59 8 q97 0 170 -90q89 -109 89 -292q0 -162 -74 -310q-86 -172 -228 -209q-33 -8 -62 -8q-123 0 -196 133q-60 112 -60 250zM266 692q0 -142 60.5 -233t147.5 -91q118 0 213 166q79 137 79 302q0 161 -76 255q-55 68 -125 68q-126 0 -221 -166q-78 -137 -78 -301z" />
<glyph unicode="&#xf6;" horiz-adv-x="1008" d="M-23 643q0 271 135 514q152 276 397 334q51 12 99 12q165 0 290 -141q158 -178 158 -477q0 -298 -155 -545q-156 -251 -378 -303q-52 -12 -100 -12q-166 0 -290 141q-156 178 -156 477zM37 643q0 -277 142 -438q106 -120 244 -120q41 0 86 10q198 47 342 276 q145 234 145 514q0 277 -142 437q-108 121 -246 121q-41 0 -85 -10q-224 -53 -364 -313q-122 -228 -122 -477zM206 692q0 162 74 309q86 172 228 209q30 8 59 8q97 0 170 -90q89 -109 89 -292q0 -162 -74 -310q-86 -172 -228 -209q-33 -8 -62 -8q-123 0 -196 133 q-60 112 -60 250zM266 692q0 -142 60.5 -233t147.5 -91q118 0 213 166q79 137 79 302q0 161 -76 255q-55 68 -125 68q-126 0 -221 -166q-78 -137 -78 -301z" />
<glyph unicode="&#xf9;" horiz-adv-x="796" d="M37 1441l290 40l-6 -1038l160 28l-8 970l291 40l-6 -962l54 9l73 -323l-128 -23l-1 -83l-272 -35v68l-436 -69q-4 459 -11 1378zM97 1389l11 -1256l436 69v-70l152 19l1 81l116 21l-47 207l-68 -11l6 964l-171 -24l8 -968l-280 -50l6 1042z" />
<glyph unicode="&#xfb;" horiz-adv-x="796" d="M-54 1968l605 251l551 -204l43 -337l-587 217l-588 -270zM9 1930l15 -215l532 244l517 -191l-26 203l-495 184zM37 1441l290 40l-6 -1038l160 28l-8 970l291 40l-6 -962l54 9l73 -323l-128 -23l-1 -83l-272 -35v68l-436 -69q-4 459 -11 1378zM97 1389l11 -1256l436 69 v-70l152 19l1 81l116 21l-47 207l-68 -11l6 964l-171 -24l8 -968l-280 -50l6 1042z" />
<glyph unicode="&#xfc;" horiz-adv-x="796" d="M37 1441l290 40l-6 -1038l160 28l-8 970l291 40l-6 -962l54 9l73 -323l-128 -23l-1 -83l-272 -35v68l-436 -69q-4 459 -11 1378zM97 1389l11 -1256l436 69v-70l152 19l1 81l116 21l-47 207l-68 -11l6 964l-171 -24l8 -968l-280 -50l6 1042z" />
<glyph unicode="&#xff;" horiz-adv-x="800" d="M30 1411l292 40l-6 -656l159 27l-8 687l292 39l-9 -1046l-201 -24l-2 -431l-271 -33l-3 430l-230 -28zM91 1359l11 -875l230 28l3 -430l152 19l2 431l202 24l7 924l-170 -23l8 -685l-281 -49l6 660z" />
<glyph unicode="&#x152;" horiz-adv-x="1750" d="M921 1429l738 63l11 -333l-359 -35l-1 -105l352 30l-22 -330l-332 -39l-1 -271l466 40l11 -333q-206 -21 -375 -42l-376 -46l-9 1067l-47 -5zM991 1375l36 -219l57 5l9 -1065l309 38q156 19 320 36l-7 213l-468 -40l1 391l336 39l14 210l-348 -30l1 225l357 35l-7 213z M-25 775q0 251 124 457q144 242 379 242q245 0 396 -250q130 -216 130 -478q0 -251 -124 -457q-145 -242 -380 -242q-245 0 -396 251q-129 215 -129 477zM35 775q0 -235 113 -433q133 -235 351 -235q209 0 337 224q108 189 108 414q0 236 -113 434q-134 235 -352 235 q-209 0 -337 -225q-107 -189 -107 -414zM187 804q0 140 66 254q79 135 209 135q152 0 248 -167q81 -142 81 -306q0 -141 -65 -256q-78 -136 -209 -136q-152 0 -248 169q-82 143 -82 307zM247 803q0 -142 64 -264q78 -149 208 -149q104 0 164 123q49 100 49 217 q0 131 -65 255q-78 147 -196 147q-107 0 -171 -116q-53 -97 -53 -213z" />
<glyph unicode="&#x153;" horiz-adv-x="1710" d="M1038 1452l291 40v-64l359 36l11 -333l-372 -44v-51l310 28l64 -321l-376 -47l-2 -245l372 41l41 -317l-684 -108zM1099 1400l12 -1263l558 88l-26 201l-380 -41l2 365l365 45l-41 205l-323 -30l1 171l370 44l-7 213l-361 -36v62zM-23 643q0 271 135 514q152 276 397 334 q51 12 99 12q165 0 290 -141q158 -178 158 -477q0 -298 -155 -545q-156 -251 -378 -303q-52 -12 -100 -12q-166 0 -290 141q-156 178 -156 477zM37 643q0 -277 142 -438q106 -120 244 -120q41 0 86 10q198 47 342 276q145 234 145 514q0 277 -142 437q-108 121 -246 121 q-41 0 -85 -10q-224 -53 -364 -313q-122 -228 -122 -477zM206 692q0 162 74 309q86 172 228 209q30 8 59 8q97 0 170 -90q89 -109 89 -292q0 -162 -74 -310q-86 -172 -228 -209q-33 -8 -62 -8q-123 0 -196 133q-60 112 -60 250zM266 692q0 -142 60.5 -233t147.5 -91 q118 0 213 166q79 137 79 302q0 161 -76 255q-55 68 -125 68q-126 0 -221 -166q-78 -137 -78 -301z" />
<glyph unicode="&#x178;" horiz-adv-x="845" d="M33 1442l300 41l-7 -460l209 36l-8 482l299 40l-9 -801l-247 -49l-4 -719l-277 -34l-7 695l-237 -47zM94 1390l10 -692l237 47l7 -699l159 20l4 715l247 49l7 683l-177 -24l8 -480l-331 -58l7 464z" />
<glyph unicode="&#x2c6;" horiz-adv-x="1226" d="M12 1395l605 251l551 -204l43 -337l-587 217l-588 -270zM75 1357l15 -215l532 244l517 -191l-26 203l-495 184z" />
<glyph unicode="&#x2000;" horiz-adv-x="1166" />
<glyph unicode="&#x2001;" horiz-adv-x="2332" />
<glyph unicode="&#x2002;" horiz-adv-x="1166" />
<glyph unicode="&#x2003;" horiz-adv-x="2332" />
<glyph unicode="&#x2004;" horiz-adv-x="777" />
<glyph unicode="&#x2005;" horiz-adv-x="583" />
<glyph unicode="&#x2006;" horiz-adv-x="388" />
<glyph unicode="&#x2007;" horiz-adv-x="388" />
<glyph unicode="&#x2008;" horiz-adv-x="291" />
<glyph unicode="&#x2009;" horiz-adv-x="466" />
<glyph unicode="&#x200a;" horiz-adv-x="129" />
<glyph unicode="&#x2010;" horiz-adv-x="607" d="M26 914q332 94 584 86v-330q-155 7 -282.5 -17.5t-294.5 -82.5q-3 110 -7 344zM87 868l3 -215q257 83 460 79v210q-194 1 -463 -74z" />
<glyph unicode="&#x2011;" horiz-adv-x="607" d="M26 914q332 94 584 86v-330q-155 7 -282.5 -17.5t-294.5 -82.5q-3 110 -7 344zM87 868l3 -215q257 83 460 79v210q-194 1 -463 -74z" />
<glyph unicode="&#x2012;" horiz-adv-x="607" d="M26 914q332 94 584 86v-330q-155 7 -282.5 -17.5t-294.5 -82.5q-3 110 -7 344zM87 868l3 -215q257 83 460 79v210q-194 1 -463 -74z" />
<glyph unicode="&#x2013;" horiz-adv-x="1024" d="M204 512v204h616v-204h-616z" />
<glyph unicode="&#x2014;" horiz-adv-x="2048" d="M204 512v204h1640v-204h-1640z" />
<glyph unicode="&#x2018;" horiz-adv-x="589" d="M25 1583q131 31 304 78q54 -245 246 -520l-311 -95q-199 263 -239 537zM93 1537q38 -209 194 -421l192 59q-144 215 -194 412q-111 -30 -192 -50z" />
<glyph unicode="&#x2019;" horiz-adv-x="577" d="M4 1141q191 271 246 520q154 -42 304 -78q-42 -277 -226 -520l-13 -17zM100 1175l192 -59q155 209 194 421q-96 24 -191 50q-52 -200 -195 -412z" />
<glyph unicode="&#x201a;" horiz-adv-x="2048" />
<glyph unicode="&#x201c;" horiz-adv-x="907" d="M8 1464q102 26 304 78q57 -250 247 -520l-311 -95q-197 262 -240 537zM76 1419q40 -211 195 -422l192 59q-143 212 -195 412zM351 1627q88 21 304 77q57 -250 247 -520l-310 -95q-198 261 -241 538zM419 1581q40 -212 195 -422l192 59q-143 212 -195 412z" />
<glyph unicode="&#x201d;" horiz-adv-x="964" d="M22 1184q190 270 247 520q193 -51 305 -77q-44 -277 -228 -521l-13 -17zM118 1218l192 -59q155 210 195 422q-53 13 -98 25l-94 24q-52 -200 -195 -412zM365 1022q190 270 247 520q101 -27 304 -78q-41 -273 -226 -520l-13 -17zM462 1056l192 -59q155 212 194 421 q-2 1 -192 50q-52 -200 -194 -412z" />
<glyph unicode="&#x2026;" horiz-adv-x="1250" d="M23 332l314 31l10 -333l-287 -32zM89 278l24 -214l172 20l-6 213zM456 363l314 31l10 -333l-287 -32zM522 309l24 -214l172 20l-6 213zM889 394l314 31l10 -333l-287 -32zM955 340l24 -214l172 20l-6 213z" />
<glyph unicode="&#x202f;" horiz-adv-x="466" />
<glyph unicode="&#x2039;" horiz-adv-x="627" d="M-11 794l423 880l240 -86l-376 -793l375 -807l-225 -136zM55 794l397 -856l122 74l-364 783l360 759l-127 46z" />
<glyph unicode="&#x203a;" horiz-adv-x="648" d="M-1 -56l374 793l-373 807l224 136l438 -943l-424 -879zM77 1520l363 -783l-358 -759l125 -46l388 805l-398 857z" />
<glyph unicode="&#x205f;" horiz-adv-x="583" />
<glyph unicode="&#x2122;" horiz-adv-x="1077" d="M37 1586l445 27l3 -23l142 55l145 -394l81 228l-1 136l181 27l-4 -804l-171 -22l-1 176l-15 -35l-134 -50l-46 128l-1 -206l-170 -20l-6 601l-124 -8l-3 -568l-170 -22l-5 577l-125 -8zM103 1530l9 -85l130 8l5 -573l51 6l3 572l142 10l-12 81zM537 1546l7 -20l6 -649 l51 6l3 490l140 -388l53 20l118 265l3 -386l51 6l4 682l-61 -9l1 -94l-140 -394l-181 492z" />
<glyph unicode="&#xe000;" horiz-adv-x="1535" d="M0 1535h1535v-1535h-1535v1535z" />
<glyph unicode="&#xfb01;" horiz-adv-x="1056" d="M721 1450l291 40l-8 -1382l-271 -35zM781 1398l11 -1257l152 19l8 1262zM-62 1435l739 64l11 -334l-359 -35l-1 -103l303 28l64 -322l-369 -46l-4 -618l-271 -35l-10 1067l-46 -5zM8 1381l37 -219l56 5l10 -1065l151 19l4 620l357 44l-40 206l-315 -30l1 223l357 35 l-7 214z" />
<glyph unicode="&#xfb02;" horiz-adv-x="1351" d="M704 1440l291 39l-6 -1040l372 41l41 -318l-684 -107zM765 1388l12 -1263l558 87l-26 202l-380 -41l6 1038zM-62 1435l739 64l11 -334l-359 -35l-1 -103l303 28l64 -322l-369 -46l-4 -618l-271 -35l-10 1067l-46 -5zM8 1381l37 -219l56 5l10 -1065l151 19l4 620l357 44 l-40 206l-315 -30l1 223l357 35l-7 214z" />
<glyph unicode="&#xfb03;" horiz-adv-x="1731" d="M1396 1450l291 40l-8 -1382l-271 -35zM1456 1398l11 -1257l152 19l8 1262zM613 1435l739 64l11 -334l-359 -35l-1 -103l303 28l64 -322l-369 -46l-4 -618l-271 -35l-10 1067l-46 -5zM683 1381l37 -219l56 5l10 -1065l151 19l4 620l357 44l-40 206l-315 -30l1 223l357 35 l-7 214zM-62 1435l739 64l11 -334l-359 -35l-1 -103l303 28l64 -322l-369 -46l-4 -618l-271 -35l-10 1067l-46 -5zM8 1381l37 -219l56 5l10 -1065l151 19l4 620l357 44l-40 206l-315 -30l1 223l357 35l-7 214z" />
<glyph unicode="&#xfb04;" horiz-adv-x="2026" d="M1379 1440l291 39l-6 -1040l372 41l41 -318l-684 -107zM1440 1388l12 -1263l558 87l-26 202l-380 -41l6 1038zM613 1435l739 64l11 -334l-359 -35l-1 -103l303 28l64 -322l-369 -46l-4 -618l-271 -35l-10 1067l-46 -5zM683 1381l37 -219l56 5l10 -1065l151 19l4 620 l357 44l-40 206l-315 -30l1 223l357 35l-7 214zM-62 1435l739 64l11 -334l-359 -35l-1 -103l303 28l64 -322l-369 -46l-4 -618l-271 -35l-10 1067l-46 -5zM8 1381l37 -219l56 5l10 -1065l151 19l4 620l357 44l-40 206l-315 -30l1 223l357 35l-7 214z" />
</font>
</defs>
</svg>
